<svg width="56" height="56" viewBox="0 0 56 56" fill="none" xmlns="http://www.w3.org/2000/svg">
<path d="M33.152 15.848C31.276 13.972 28.224 13.972 26.348 15.848C24.472 17.724 24.472 20.776 26.348 22.652L33.348 29.652C34.286 30.59 35.518 31.059 36.75 31.059C37.982 31.059 39.214 30.59 40.152 29.652C41.0531 28.7491 41.5591 27.5256 41.5591 26.25C41.5591 24.9744 41.0531 23.7509 40.152 22.848L33.152 15.848ZM38.297 27.797C37.8858 28.2057 37.3297 28.4351 36.75 28.4351C36.1703 28.4351 35.6142 28.2057 35.203 27.797L28.203 20.797C27.8287 20.3798 27.6285 19.8349 27.6437 19.2746C27.6588 18.7142 27.8882 18.181 28.2846 17.7846C28.681 17.3882 29.2142 17.1589 29.7745 17.1437C30.3349 17.1285 30.8797 17.3287 31.297 17.703L38.297 24.703C38.7065 25.1137 38.9365 25.6701 38.9365 26.25C38.9365 26.83 38.7065 27.3863 38.297 27.797Z" fill="#1D1D1B"/>
<path d="M45.1045 18.7425L37.2575 10.8955C35.5845 9.1945 33.8555 7.4375 29.75 7.4375H24.0625V1.75C24.0625 1.4019 23.9242 1.06806 23.6781 0.821922C23.4319 0.575781 23.0981 0.4375 22.75 0.4375H12.25C11.9019 0.4375 11.5681 0.575781 11.3219 0.821922C11.0758 1.06806 10.9375 1.4019 10.9375 1.75V7.644C8.925 8.218 7.4375 10.0555 7.4375 12.25V50.75C7.4375 53.403 9.597 55.5625 12.25 55.5625H43.75C46.403 55.5625 48.5625 53.403 48.5625 50.75V26.25C48.5625 22.1445 46.8055 20.4155 45.1045 18.7425ZM21.4375 3.0625V7.4375H13.5625V3.0625H21.4375ZM45.9375 50.75C45.9375 51.9575 44.9575 52.9375 43.75 52.9375H12.25C11.6701 52.9366 11.1143 52.7058 10.7042 52.2958C10.2942 51.8857 10.0634 51.3299 10.0625 50.75V12.25C10.0625 11.0425 11.0425 10.0625 12.25 10.0625H29.75C32.7565 10.0625 33.859 11.1825 35.385 12.7365L43.26 20.615C44.814 22.1375 45.934 23.24 45.934 26.2465V50.7465L45.9375 50.75Z" fill="#1D1D1B"/>
<path d="M20.0725 32.3224C16.2295 36.1654 14.4375 39.2419 14.4375 41.9999C14.4375 45.6189 17.381 48.5624 21 48.5624C24.619 48.5624 27.5625 45.6189 27.5625 41.9999C27.5625 39.2419 25.7705 36.1654 21.9275 32.3224C21.6814 32.0767 21.3478 31.9386 21 31.9386C20.6522 31.9386 20.3186 32.0767 20.0725 32.3224ZM21 45.9374C18.83 45.9374 17.0625 44.1699 17.0625 41.9999C17.0625 40.2359 18.3855 37.9294 21 35.1399C23.6145 37.9294 24.9375 40.2359 24.9375 41.9999C24.9375 44.1699 23.17 45.9374 21 45.9374Z" fill="#1D1D1B"/>
</svg>
