<svg width="56" height="56" viewBox="0 0 56 56" fill="none" xmlns="http://www.w3.org/2000/svg">
<path d="M42 35.875H39.7302C39.4904 35.0712 39.1678 34.2944 38.7677 33.5571L40.3742 31.9506C40.5384 31.7866 40.6307 31.564 40.6308 31.3319C40.6309 31.0998 40.5388 30.8771 40.3747 30.7129C40.2106 30.5488 39.988 30.4565 39.7559 30.4564C39.5238 30.4563 39.3012 30.5484 39.137 30.7125L37.0554 32.7933C36.9159 32.9326 36.8276 33.115 36.8047 33.3108C36.7818 33.5066 36.8258 33.7044 36.9294 33.8721C37.5177 34.823 37.9491 35.8624 38.2069 36.9504C38.2522 37.1421 38.3609 37.313 38.5154 37.4353C38.6699 37.5576 38.8612 37.6241 39.0582 37.6241H41.125V41.1241H39.0582C38.8612 41.1242 38.6699 41.1907 38.5154 41.313C38.3609 41.4353 38.2522 41.6061 38.2069 41.7979C37.9491 42.8859 37.5177 43.9253 36.9294 44.8761C36.8258 45.0439 36.7818 45.2417 36.8047 45.4375C36.8276 45.6333 36.9159 45.8157 37.0554 45.955L38.5184 47.4171L36.043 49.8925L34.5809 48.4313C34.4415 48.2918 34.2592 48.2035 34.0633 48.1806C33.8675 48.1577 33.6697 48.2016 33.502 48.3053C32.5507 48.8927 31.5115 49.324 30.4237 49.5828C30.232 49.6281 30.0611 49.7368 29.9389 49.8913C29.8166 50.0458 29.75 50.2371 29.75 50.4341V52.5H26.25V50.4341C26.25 50.2371 26.1834 50.0458 26.0611 49.8913C25.9389 49.7368 25.768 49.6281 25.5762 49.5828C24.4885 49.324 23.4493 48.8927 22.498 48.3053C22.3303 48.2016 22.1325 48.1577 21.9366 48.1806C21.7408 48.2035 21.5585 48.2918 21.4191 48.4313L19.957 49.8934L17.4816 47.418L18.9446 45.9559C19.0841 45.8165 19.1724 45.6342 19.1953 45.4384C19.2182 45.2425 19.1742 45.0447 19.0706 44.877C18.4823 43.9262 18.0509 42.8868 17.7931 41.7988C17.7478 41.607 17.6391 41.4361 17.4846 41.3139C17.33 41.1916 17.1388 41.125 16.9417 41.125H14.875V40.0295C14.875 39.7974 14.7828 39.5749 14.6187 39.4108C14.4546 39.2467 14.2321 39.1545 14 39.1545C13.7679 39.1545 13.5454 39.2467 13.3813 39.4108C13.2172 39.5749 13.125 39.7974 13.125 40.0295V42C13.125 42.2321 13.2172 42.4546 13.3813 42.6187C13.5454 42.7828 13.7679 42.875 14 42.875H16.2697C16.5096 43.6788 16.8321 44.4556 17.2322 45.1929L15.6257 46.7994C15.4617 46.9635 15.3696 47.186 15.3696 47.418C15.3696 47.65 15.4617 47.8726 15.6257 48.0366L19.3375 51.7493C19.5016 51.9133 19.7241 52.0055 19.9561 52.0055C20.1881 52.0055 20.4107 51.9133 20.5747 51.7493L22.1812 50.1436C22.919 50.5432 23.696 50.8655 24.5 51.1053V53.375C24.5 53.6071 24.5922 53.8296 24.7563 53.9937C24.9204 54.1578 25.1429 54.25 25.375 54.25H30.625C30.8571 54.25 31.0796 54.1578 31.2437 53.9937C31.4078 53.8296 31.5 53.6071 31.5 53.375V51.1053C32.3037 50.8651 33.0805 50.5426 33.8179 50.1428L35.4244 51.7484C35.5885 51.9124 35.811 52.0046 36.043 52.0046C36.275 52.0046 36.4975 51.9124 36.6616 51.7484L40.3742 48.0375C40.5383 47.8734 40.6304 47.6509 40.6304 47.4189C40.6304 47.1869 40.5383 46.9643 40.3742 46.8003L38.7677 45.1938C39.1679 44.4562 39.4905 43.6791 39.7302 42.875H42C42.2321 42.875 42.4546 42.7828 42.6187 42.6187C42.7828 42.4546 42.875 42.2321 42.875 42V36.75C42.875 36.5179 42.7828 36.2954 42.6187 36.1313C42.4546 35.9672 42.2321 35.875 42 35.875ZM14.9345 19.1555C15.3949 19.1547 15.847 19.0329 16.2454 18.8022C16.6439 18.5715 16.9746 18.24 17.2045 17.8411C17.4343 17.4422 17.5552 16.9898 17.5551 16.5294C17.5549 16.069 17.4336 15.6167 17.2034 15.218C16.9729 14.8188 16.6413 14.4873 16.242 14.2569C15.8427 14.0265 15.3897 13.9053 14.9287 13.9055C14.4677 13.9058 14.0149 14.0274 13.6158 14.2582C13.2168 14.489 12.8855 14.8208 12.6554 15.2203C12.4253 15.6198 12.3045 16.0728 12.3051 16.5338C12.3056 16.9948 12.4276 17.4476 12.6587 17.8465C12.8898 18.2454 13.2219 18.5764 13.6216 18.8062C14.0212 19.036 14.4735 19.1564 14.9345 19.1555ZM14.4917 15.7728C14.6416 15.6863 14.8137 15.6463 14.9864 15.6576C15.159 15.669 15.3244 15.7313 15.4616 15.8366C15.5989 15.942 15.7018 16.0856 15.7574 16.2495C15.8131 16.4133 15.8189 16.5899 15.7741 16.757C15.7294 16.9242 15.6361 17.0743 15.5061 17.1884C15.376 17.3025 15.2151 17.3755 15.0436 17.3982C14.872 17.4209 14.6976 17.3922 14.5424 17.3158C14.3872 17.2394 14.2581 17.1186 14.1715 16.9689C14.1139 16.8693 14.0765 16.7594 14.0614 16.6454C14.0464 16.5314 14.0539 16.4155 14.0837 16.3044C14.1134 16.1933 14.1648 16.0892 14.2348 15.998C14.3048 15.9067 14.3921 15.8302 14.4917 15.7728Z" fill="black"/>
<path d="M54.1625 9.82104C54.0742 9.48714 53.9205 9.17411 53.7102 8.90013C53.4999 8.62615 53.2373 8.39668 52.9375 8.22504L42.329 2.10004C42.0303 1.92749 41.7005 1.8155 41.3585 1.77049C41.0165 1.72548 40.669 1.74832 40.3358 1.83771C40.0026 1.9271 39.6903 2.08129 39.4168 2.29145C39.1432 2.50162 38.9138 2.76364 38.7415 3.06254L34.4838 10.437C34.4263 10.5366 34.3891 10.6465 34.3741 10.7605C34.3591 10.8745 34.3667 10.9903 34.3965 11.1013C34.4263 11.2123 34.4776 11.3164 34.5476 11.4076C34.6176 11.4988 34.7049 11.5753 34.8045 11.6327C34.904 11.6902 35.014 11.7275 35.1279 11.7424C35.2419 11.7574 35.3577 11.7498 35.4687 11.72C35.5798 11.6902 35.6838 11.6389 35.775 11.5689C35.8662 11.4989 35.9427 11.4116 36.0002 11.312L37.1945 9.24179L49.3185 16.2418L44.2803 24.9682C41.1961 21.2719 36.8994 18.7912 32.1563 17.9682L34.2502 14.3439C34.3076 14.2443 34.3449 14.1344 34.3599 14.0205C34.3749 13.9065 34.3672 13.7907 34.3375 13.6797C34.3077 13.5686 34.2563 13.4645 34.1863 13.3734C34.1163 13.2822 34.029 13.2057 33.9295 13.1482C33.8299 13.0908 33.72 13.0535 33.606 13.0385C33.4921 13.0235 33.3762 13.0312 33.2652 13.0609C33.1542 13.0907 33.0501 13.1421 32.9589 13.2121C32.8677 13.2821 32.7912 13.3693 32.7338 13.4689L29.9924 18.2175C29.9196 18.3438 29.8795 18.4862 29.8757 18.6319C29.8719 18.7776 29.9046 18.9219 29.9707 19.0518C30.0369 19.1817 30.1344 19.2929 30.2545 19.3755C30.3746 19.4581 30.5134 19.5094 30.6583 19.5248C32.0599 19.675 33.4398 19.9853 34.7708 20.4497L31.5 26.1074V25.375C31.5 25.143 31.4079 24.9204 31.2438 24.7563C31.0797 24.5922 30.8571 24.5 30.625 24.5H25.375C25.143 24.5 24.9204 24.5922 24.7563 24.7563C24.5922 24.9204 24.5 25.143 24.5 25.375V26.1074L21.2337 20.4497C22.5647 19.9853 23.9445 19.675 25.3462 19.5248C25.4911 19.5094 25.6299 19.4581 25.75 19.3755C25.87 19.2929 25.9676 19.1817 26.0337 19.0518C26.0999 18.9219 26.1325 18.7776 26.1287 18.6319C26.125 18.4862 26.0848 18.3438 26.012 18.2175L17.262 3.06254C17.0898 2.76364 16.8604 2.50162 16.5868 2.29145C16.3133 2.08129 16.001 1.9271 15.6678 1.83771C15.3346 1.74832 14.9871 1.72548 14.6451 1.77049C14.303 1.8155 13.9732 1.92749 13.6745 2.10004L3.06254 8.22504C2.76364 8.39726 2.50162 8.62671 2.29145 8.90026C2.08129 9.17381 1.9271 9.48611 1.83771 9.81929C1.74832 10.1525 1.72548 10.5 1.77049 10.842C1.8155 11.184 1.92749 11.5138 2.10004 11.8125L6.92391 20.1679C7.04077 20.3672 7.23173 20.5123 7.45511 20.5713C7.67849 20.6304 7.91617 20.5987 8.11627 20.4832C8.31637 20.3676 8.46265 20.1776 8.52319 19.9546C8.58373 19.7317 8.55362 19.4938 8.43941 19.2929L6.68066 16.2418L16.912 10.3355C17.1131 10.2195 17.2599 10.0283 17.32 9.80411C17.3802 9.57988 17.3488 9.34093 17.2327 9.13985C17.1167 8.93877 16.9255 8.79201 16.7013 8.73187C16.4771 8.67173 16.2381 8.70313 16.037 8.81916L5.80566 14.7263L4.93066 13.2108L17.0547 6.21079L23.8429 17.9682C19.0998 18.7912 14.8031 21.2719 11.7189 24.9682L10.1912 22.3239C10.1341 22.2236 10.0578 22.1356 9.96662 22.0649C9.87542 21.9942 9.77113 21.9422 9.65977 21.912C9.54841 21.8817 9.43216 21.8738 9.31773 21.8887C9.2033 21.9036 9.09294 21.9409 8.993 21.9986C8.89307 22.0563 8.80553 22.1332 8.73544 22.2249C8.66534 22.3165 8.61407 22.4212 8.58458 22.5327C8.55508 22.6443 8.54795 22.7606 8.56358 22.8749C8.57921 22.9893 8.6173 23.0994 8.67566 23.1989L10.85 26.9675C10.9228 27.0941 11.0261 27.2004 11.1505 27.2768C11.2749 27.3533 11.4165 27.3973 11.5623 27.405H11.6087C11.7466 27.4049 11.8825 27.3722 12.0054 27.3095C12.1283 27.2469 12.2346 27.1561 12.3157 27.0445C13.1456 25.9072 14.103 24.8685 15.169 23.9488L17.8115 28.525L15.624 30.7125C15.46 30.8766 15.3679 31.0991 15.3679 31.3312C15.3679 31.5632 15.46 31.7857 15.624 31.9498L17.2305 33.5563C16.831 34.2939 16.509 35.071 16.2698 35.875H14C13.768 35.875 13.5454 35.9672 13.3813 36.1313C13.2172 36.2954 13.125 36.518 13.125 36.75C13.125 36.9821 13.2172 37.2047 13.3813 37.3688C13.5454 37.5328 13.768 37.625 14 37.625H16.9418C17.1388 37.625 17.3301 37.5585 17.4846 37.4362C17.6391 37.3139 17.7478 37.143 17.7932 36.9513C18.051 35.8633 18.4823 34.8239 19.0707 33.873C19.1743 33.7053 19.2182 33.5075 19.1953 33.3117C19.1725 33.1159 19.0841 32.9335 18.9447 32.7942L17.4817 31.332L18.7189 30.0939L20.4689 33.131C20.7129 33.5569 20.8643 34.0295 20.9132 34.5178C20.962 35.0062 20.9072 35.4994 20.7524 35.9652L18.4967 39.8729C18.4391 39.9725 18.4017 40.0824 18.3866 40.1964C18.3715 40.3104 18.3791 40.4263 18.4088 40.5374C18.4386 40.6485 18.4899 40.7526 18.5599 40.8438C18.63 40.935 18.7173 41.0116 18.8169 41.069L20.6019 42.0989C21.2193 43.6942 22.3387 45.0455 23.7913 45.9489C23.889 46.0095 23.9976 46.0503 24.111 46.0689C24.2245 46.0875 24.3405 46.0836 24.4524 46.0574C24.5643 46.0312 24.67 45.9832 24.7634 45.9162C24.8567 45.8492 24.936 45.7644 24.9966 45.6667C25.0572 45.569 25.098 45.4604 25.1166 45.347C25.1352 45.2335 25.1313 45.1175 25.1051 45.0056C25.0789 44.8937 25.0309 44.788 24.9639 44.6947C24.8969 44.6013 24.8121 44.522 24.7144 44.4614C23.5089 43.7125 22.6008 42.5681 22.1454 41.2239C22.0768 41.0223 21.9376 40.8523 21.7534 40.7453L20.4497 39.9928L22.1997 36.9618L23.8 37.8788C23.4789 38.8345 23.4983 39.8719 23.8549 40.815C24.2116 41.758 24.8834 42.5487 25.7566 43.0528C26.6297 43.5569 27.6504 43.7434 28.6454 43.5807C29.6404 43.418 30.5485 42.9161 31.2157 42.1602L32.8125 43.0842L31.0625 46.1152L29.7588 45.3627C29.5734 45.2563 29.3558 45.2209 29.1463 45.2629C28.6501 45.3627 28.1433 45.3998 27.6378 45.3732C27.4067 45.3657 27.1818 45.4486 27.0109 45.6043C26.84 45.76 26.7365 45.9762 26.7225 46.207C26.7171 46.3218 26.7344 46.4366 26.7733 46.5447C26.8123 46.6528 26.8721 46.7522 26.9495 46.8372C27.0268 46.9222 27.1201 46.9911 27.2241 47.04C27.3281 47.0889 27.4407 47.1169 27.5555 47.1223C28.0915 47.1473 28.6285 47.118 29.1585 47.0348L30.9435 48.0655C31.0769 48.1415 31.2276 48.1816 31.381 48.1819C31.5346 48.1819 31.6855 48.1415 31.8185 48.0647C31.9515 47.9879 32.062 47.8774 32.1388 47.7444L35.4638 41.9878C35.859 41.3066 36.0953 40.5449 36.1548 39.7596C36.2144 38.9743 36.0957 38.1857 35.8077 37.4527L35.2993 36.1507C35.1068 35.6621 35.0274 35.1364 35.0671 34.6128C35.1068 34.0892 35.2646 33.5814 35.5285 33.1275L39.6052 26.0663C39.7212 25.8652 39.7526 25.6263 39.6925 25.402C39.6323 25.1778 39.4856 24.9866 39.2845 24.8706C39.0834 24.7546 38.8445 24.7232 38.6202 24.7833C38.396 24.8434 38.2048 24.9902 38.0888 25.1913L34.013 32.2525C33.6173 32.9337 33.3809 33.6956 33.3213 34.4811C33.2618 35.2667 33.3807 36.0555 33.6692 36.7885L34.1775 38.0897C34.3704 38.5786 34.4502 39.1049 34.4108 39.6291C34.3714 40.1532 34.2139 40.6617 33.95 41.1163L33.6875 41.5687L32.095 40.649C32.4147 39.6925 32.394 38.6549 32.0365 37.7119C31.6791 36.7688 31.0068 35.9782 30.1335 35.4739C29.2601 34.9695 28.2393 34.7824 27.2439 34.9442C26.2484 35.1059 25.3394 35.6066 24.6707 36.3615L23.0782 35.4428L23.3407 34.9904C23.6028 34.5354 23.9641 34.1453 24.3979 33.8493C24.8316 33.5533 25.3265 33.3589 25.8458 33.2807L27.2265 33.0698C28.0055 32.9532 28.7481 32.662 29.3986 32.2179C30.0491 31.7737 30.5907 31.1882 30.9829 30.5052L36.4079 21.105C39.302 22.4275 41.807 24.4727 43.6818 27.0437C43.7629 27.1552 43.8692 27.246 43.9921 27.3087C44.1149 27.3713 44.2509 27.404 44.3888 27.4042H44.4352C44.581 27.3964 44.7225 27.3524 44.8469 27.276C44.9713 27.1995 45.0746 27.0932 45.1474 26.9667L53.9 11.8125C54.0736 11.5146 54.1862 11.185 54.2313 10.8431C54.2763 10.5013 54.253 10.1538 54.1625 9.82104ZM16.1797 4.69529L4.05566 11.6953L3.61816 10.9367C3.50262 10.736 3.47135 10.4976 3.53122 10.2739C3.59108 10.0502 3.7372 9.85934 3.93754 9.74316L14.5469 3.61816C14.7478 3.50206 14.9865 3.47049 15.2107 3.53038C15.4348 3.59027 15.626 3.73672 15.7422 3.93754L16.1797 4.69529ZM29.2574 36.9907C29.7069 37.2503 30.0693 37.6373 30.2988 38.1029C30.5283 38.5684 30.6147 39.0916 30.5469 39.6062C30.4792 40.1208 30.2604 40.6038 29.9183 40.9941C29.5761 41.3844 29.1259 41.6645 28.6246 41.799C28.1233 41.9335 27.5933 41.9164 27.1017 41.7497C26.6102 41.5831 26.179 41.2745 25.8628 40.8629C25.5466 40.4513 25.3595 39.9552 25.3251 39.4373C25.2908 38.9194 25.4108 38.4029 25.6699 37.9532C25.8405 37.6526 26.0692 37.389 26.3425 37.1776C26.6159 36.9661 26.9286 36.8111 27.2624 36.7216C27.5961 36.632 27.9444 36.6097 28.2869 36.6559C28.6294 36.7021 28.9593 36.8159 29.2574 36.9907ZM22.4368 33.2719C22.3239 32.9182 22.1734 32.5776 21.9879 32.256L16.5629 22.8559C17.5156 22.1785 18.5302 21.5925 19.593 21.1059L25.018 30.506C25.2378 30.8744 25.5023 31.2141 25.8055 31.5175L25.5789 31.5525C24.3613 31.7364 23.2481 32.3456 22.4368 33.2719ZM27.9948 30.9969C27.3861 30.6945 26.8787 30.2214 26.5344 29.6354L26.075 28.8392C26.1874 28.6894 26.2487 28.5075 26.25 28.3203V26.25H29.75V28.3159C29.7507 28.5035 29.8121 28.6858 29.925 28.8357L29.4648 29.631C29.1192 30.2194 28.6079 30.6929 27.9948 30.9925V30.9969ZM40.789 3.52979C41.0133 3.47029 41.252 3.50174 41.4532 3.61729L52.0625 9.74229C52.2631 9.85847 52.4094 10.0495 52.4693 10.2734C52.5292 10.4973 52.4977 10.7359 52.3819 10.9367L51.9444 11.6944L39.8204 4.69441L40.2579 3.93666C40.3741 3.73603 40.5651 3.5897 40.789 3.52979ZM38.0704 7.72979L38.9454 6.21429L51.0694 13.2143L50.1944 14.7298L38.0704 7.72979Z" fill="black"/>
<path d="M41.0655 19.1564C41.5265 19.1573 41.9796 19.0368 42.3793 18.807C42.7789 18.5772 43.111 18.2462 43.3421 17.8473C43.5732 17.4484 43.6952 16.9957 43.6958 16.5347C43.6964 16.0737 43.5755 15.6207 43.3454 15.2212C43.1153 14.8217 42.7841 14.4899 42.385 14.2591C41.986 14.0282 41.5331 13.9066 41.0721 13.9064C40.6111 13.9061 40.1582 14.0273 39.7589 14.2577C39.3596 14.4881 39.028 14.8196 38.7975 15.2189C38.5673 15.6176 38.446 16.0698 38.4458 16.5303C38.4456 16.9907 38.5665 17.443 38.7964 17.8419C39.0262 18.2409 39.357 18.5723 39.7554 18.803C40.1539 19.0337 40.6051 19.1556 41.0655 19.1564ZM40.313 16.0939C40.3995 15.944 40.5285 15.8231 40.6838 15.7466C40.839 15.6701 41.0134 15.6413 41.185 15.6638C41.3566 15.6864 41.5176 15.7594 41.6477 15.8735C41.7778 15.9876 41.8712 16.1377 41.916 16.3049C41.9607 16.4721 41.955 16.6488 41.8993 16.8126C41.8437 16.9765 41.7407 17.1202 41.6034 17.2256C41.4661 17.3309 41.3007 17.3932 41.128 17.4045C40.9553 17.4158 40.7831 17.3757 40.6332 17.2891C40.4323 17.1731 40.2856 16.982 40.2256 16.7578C40.1655 16.5337 40.197 16.2948 40.313 16.0939Z" fill="black"/>
</svg>
