<svg width="56" height="56" viewBox="0 0 56 56" fill="none" xmlns="http://www.w3.org/2000/svg">
<path d="M53.2437 22.0325C53.166 21.9048 53.0568 21.7991 52.9266 21.7256C52.7964 21.6521 52.6495 21.6132 52.5 21.6125H42.49V20.2825C42.49 19.5863 42.2134 18.9187 41.7212 18.4264C41.2289 17.9341 40.5612 17.6575 39.865 17.6575H12.5387C11.8426 17.6575 11.1749 17.9341 10.6826 18.4264C10.1903 18.9187 9.91375 19.5863 9.91375 20.2825V21.6125H3.5C3.26794 21.6125 3.04538 21.7047 2.88128 21.8688C2.71719 22.0329 2.625 22.2555 2.625 22.4875V33.5125C2.625 33.7446 2.71719 33.9672 2.88128 34.1313C3.04538 34.2953 3.26794 34.3875 3.5 34.3875H9.8875V35.7175C9.8875 36.4137 10.1641 37.0814 10.6563 37.5737C11.1486 38.066 11.8163 38.3425 12.5125 38.3425H39.8125C40.5087 38.3425 41.1764 38.066 41.6687 37.5737C42.1609 37.0814 42.4375 36.4137 42.4375 35.7175V34.3875H47.005C47.1675 34.3862 47.3264 34.3397 47.464 34.2532C47.6015 34.1666 47.7123 34.0435 47.7838 33.8975L53.2875 22.8813C53.3529 22.7478 53.3832 22.5997 53.3756 22.4512C53.3679 22.3027 53.3226 22.1586 53.2437 22.0325ZM4.375 32.6375V23.3625H9.8875V32.6375H4.375ZM40.74 35.7175C40.74 35.9496 40.6478 36.1722 40.4837 36.3363C40.3196 36.5003 40.0971 36.5925 39.865 36.5925H12.5387C12.3067 36.5925 12.0841 36.5003 11.92 36.3363C11.7559 36.1722 11.6637 35.9496 11.6637 35.7175V20.2825C11.6637 20.0505 11.7559 19.8279 11.92 19.6638C12.0841 19.4997 12.3067 19.4075 12.5387 19.4075H39.8387C40.0708 19.4075 40.2934 19.4997 40.4575 19.6638C40.6216 19.8279 40.7137 20.0505 40.7137 20.2825L40.74 35.7175ZM46.515 32.6375H42.5513V23.3625H51.0912L46.515 32.6375ZM24.7188 11.375H36.8375C37.9352 11.375 38.9879 10.939 39.764 10.1628C40.5402 9.38666 40.9762 8.33395 40.9762 7.23628C40.9762 6.13862 40.5402 5.08591 39.764 4.30975C38.9879 3.53358 37.9352 3.09753 36.8375 3.09753C36.6054 3.09753 36.3829 3.18972 36.2188 3.35382C36.0547 3.51791 35.9625 3.74047 35.9625 3.97253C35.9625 4.2046 36.0547 4.42716 36.2188 4.59125C36.3829 4.75535 36.6054 4.84753 36.8375 4.84753C37.471 4.84753 38.0786 5.09921 38.5266 5.54718C38.9746 5.99516 39.2262 6.60275 39.2262 7.23628C39.2262 7.86982 38.9746 8.47741 38.5266 8.92539C38.0786 9.37336 37.471 9.62503 36.8375 9.62503H24.7188C24.4867 9.62503 24.2641 9.71722 24.1 9.88132C23.9359 10.0454 23.8438 10.268 23.8438 10.5C23.8438 10.7321 23.9359 10.9547 24.1 11.1188C24.2641 11.2828 24.4867 11.375 24.7188 11.375Z" fill="black"/>
<path d="M42.875 8.11133C43.5085 8.11133 44.1161 8.363 44.5641 8.81098C45.0121 9.25895 45.2638 9.86654 45.2638 10.5001C45.2638 11.1336 45.0121 11.7412 44.5641 12.1892C44.1161 12.6372 43.5085 12.8888 42.875 12.8888H30.7738C30.5417 12.8888 30.3191 12.981 30.155 13.1451C29.9909 13.3092 29.8988 13.5318 29.8988 13.7638C29.8988 13.9959 29.9909 14.2185 30.155 14.3825C30.3191 14.5466 30.5417 14.6388 30.7738 14.6388H42.875C43.9727 14.6388 45.0254 14.2028 45.8015 13.4266C46.5777 12.6505 47.0138 11.5977 47.0138 10.5001C47.0138 9.40241 46.5777 8.34971 45.8015 7.57354C45.0254 6.79737 43.9727 6.36133 42.875 6.36133C42.6429 6.36133 42.4204 6.45352 42.2563 6.61761C42.0922 6.7817 42 7.00426 42 7.23633C42 7.46839 42.0922 7.69095 42.2563 7.85505C42.4204 8.01914 42.6429 8.11133 42.875 8.11133ZM20.125 44.8351H8.00626C7.77419 44.8351 7.55163 44.9273 7.38754 45.0914C7.22344 45.2555 7.13126 45.478 7.13126 45.7101C7.13126 45.9421 7.22344 46.1647 7.38754 46.3288C7.55163 46.4929 7.77419 46.5851 8.00626 46.5851H20.125C20.7347 46.622 21.3073 46.8901 21.726 47.3349C22.1446 47.7796 22.3777 48.3674 22.3777 48.9782C22.3777 49.589 22.1446 50.1768 21.726 50.6215C21.3073 51.0663 20.7347 51.3344 20.125 51.3713C19.8929 51.3713 19.6704 51.4635 19.5063 51.6276C19.3422 51.7917 19.25 52.0143 19.25 52.2463C19.25 52.4784 19.3422 52.7009 19.5063 52.865C19.6704 53.0291 19.8929 53.1213 20.125 53.1213C21.1909 53.0723 22.1969 52.6144 22.9339 51.8428C23.6708 51.0712 24.0821 50.0452 24.0821 48.9782C24.0821 47.9112 23.6708 46.8852 22.9339 46.1136C22.1969 45.342 21.1909 44.8841 20.125 44.8351Z" fill="black"/>
<path d="M26.18 41.5713H14.07C13.8379 41.5713 13.6154 41.6635 13.4513 41.8276C13.2872 41.9917 13.195 42.2142 13.195 42.4463C13.195 42.6784 13.2872 42.9009 13.4513 43.065C13.6154 43.2291 13.8379 43.3213 14.07 43.3213H26.18C26.8135 43.3213 27.4211 43.573 27.8691 44.0209C28.3171 44.4689 28.5688 45.0765 28.5688 45.71C28.5688 46.3436 28.3171 46.9512 27.8691 47.3991C27.4211 47.8471 26.8135 48.0988 26.18 48.0988C25.9479 48.0988 25.7254 48.191 25.5613 48.3551C25.3972 48.5192 25.305 48.7417 25.305 48.9738C25.305 49.2059 25.3972 49.4284 25.5613 49.5925C25.7254 49.7566 25.9479 49.8488 26.18 49.8488C27.2777 49.8488 28.3304 49.4127 29.1065 48.6366C29.8827 47.8604 30.3188 46.8077 30.3188 45.71C30.3188 44.6124 29.8827 43.5597 29.1065 42.7835C28.3304 42.0073 27.2777 41.5713 26.18 41.5713Z" fill="black"/>
</svg>
