<svg width="56" height="56" viewBox="0 0 56 56" fill="none" xmlns="http://www.w3.org/2000/svg">
<path fill-rule="evenodd" clip-rule="evenodd" d="M22.659 45.7678C22.8771 46.0481 23.1563 46.2747 23.4754 46.4305C23.7945 46.5863 24.1449 46.6671 24.5 46.6667H27.4167C27.3776 46.6685 27.4564 46.6667 27.4167 46.6667C28.6335 46.7192 29.7284 45.7101 29.75 44.4786C33.6449 40.6141 36.4584 34.5171 36.4584 28.0001C36.4584 21.4831 33.6455 15.3872 29.75 11.5226C29.7284 10.2953 28.6277 9.28789 27.4167 9.33339C27.3735 9.33106 27.4604 9.33339 27.4167 9.33339H24.5C24.1447 9.33311 23.794 9.41412 23.4748 9.57023C23.1556 9.72634 22.8764 9.95341 22.6584 10.2341C13.4272 12.7581 4.66669 19.7587 4.66669 28.0006C4.66669 36.2431 13.4284 43.2437 22.659 45.7678ZM27.4167 11.6667H24.5V44.3334H27.4167V11.6667ZM22.1667 12.8112C19.0243 13.8064 15.9787 15.3534 13.4412 17.2941C9.40102 20.3846 7.00002 24.1798 7.00002 28.0006C7.00002 31.8215 9.40102 35.6166 13.4412 38.7071C15.9787 40.6479 19.0243 42.1949 22.1667 43.1901V32.0426C21.194 31.903 20.3043 31.4174 19.6608 30.6749C19.0172 29.9323 18.6629 28.9827 18.6629 28.0001C18.6629 27.0175 19.0172 26.0678 19.6608 25.3253C20.3043 24.5827 21.194 24.0971 22.1667 23.9576V12.8112ZM22.1667 26.3498C21.8255 26.4706 21.5302 26.6941 21.3213 26.9896C21.1124 27.2852 21.0002 27.6382 21.0002 28.0001C21.0002 28.362 21.1124 28.715 21.3213 29.0105C21.5302 29.306 21.8255 29.5296 22.1667 29.6503V26.3498ZM29.75 41.0906C32.4293 37.7435 34.125 33.1427 34.125 28.0006C34.125 22.8586 32.4287 18.2578 29.75 14.9106V41.0906Z" fill="black"/>
<path d="M39.7367 20.2931C39.631 20.0023 39.6451 19.6815 39.7759 19.4011C39.9068 19.1207 40.1436 18.9038 40.4344 18.798L47.012 16.404C47.3011 16.3051 47.6174 16.3235 47.893 16.4553C48.1686 16.5871 48.3816 16.8217 48.4861 17.1088C48.5906 17.3959 48.5783 17.7125 48.4519 17.9906C48.3255 18.2687 48.095 18.4862 47.81 18.5962L41.2324 20.9908C40.9416 21.0965 40.6207 21.0824 40.3404 20.9516C40.06 20.8207 39.8425 20.5839 39.7367 20.2931ZM42 28.0001C42 27.6907 42.123 27.394 42.3418 27.1752C42.5605 26.9564 42.8573 26.8335 43.1667 26.8335H50.1667C50.4761 26.8335 50.7729 26.9564 50.9917 27.1752C51.2105 27.394 51.3334 27.6907 51.3334 28.0001C51.3334 28.3095 51.2105 28.6063 50.9917 28.8251C50.7729 29.0439 50.4761 29.1668 50.1667 29.1668H43.1667C42.8573 29.1668 42.5605 29.0439 42.3418 28.8251C42.123 28.6063 42 28.3095 42 28.0001ZM41.2324 35.0701C41.0884 35.0177 40.9354 34.9942 40.7823 35.0009C40.6292 35.0076 40.4789 35.0444 40.3401 35.1092C40.2012 35.174 40.0764 35.2655 39.9729 35.3785C39.8694 35.4915 39.7891 35.6238 39.7367 35.7678C39.6843 35.9118 39.6608 36.0647 39.6675 36.2178C39.6742 36.3709 39.711 36.5212 39.7758 36.6601C39.9066 36.9406 40.1435 37.1576 40.4344 37.2635L47.012 39.6575C47.3029 39.7633 47.6239 39.7492 47.9044 39.6184C48.1849 39.4875 48.4019 39.2506 48.5077 38.9598C48.6135 38.6689 48.5995 38.348 48.4686 38.0675C48.3378 37.787 48.1009 37.5699 47.81 37.4641L41.2324 35.0701Z" fill="black"/>
</svg>
