<svg width="56" height="56" viewBox="0 0 56 56" fill="none" xmlns="http://www.w3.org/2000/svg">
<path d="M50.1171 10.1071L44.455 12.7609L47.6378 18.1418C47.7215 18.2836 47.7572 18.4487 47.7396 18.6124C47.722 18.7761 47.6519 18.9297 47.5399 19.0504C47.428 19.1712 47.28 19.2525 47.1181 19.2823C46.9561 19.3122 46.7889 19.289 46.6412 19.2161L41.0365 16.445L38.8137 22.29C38.755 22.4438 38.6483 22.5746 38.5093 22.6629C38.3703 22.7512 38.2065 22.7922 38.0423 22.7799C37.8782 22.7677 37.7223 22.7027 37.598 22.5947C37.4737 22.4868 37.3876 22.3416 37.3524 22.1807L35.8455 15.2494C35.8242 15.1513 35.8224 15.05 35.8402 14.9512C35.858 14.8525 35.8951 14.7582 35.9494 14.6737C36.0037 14.5893 36.0741 14.5164 36.1565 14.4592C36.239 14.4019 36.3319 14.3615 36.43 14.3402C36.8423 14.2501 37.2495 14.5122 37.3392 14.9247L38.2995 19.3418L39.9068 15.1154C39.9447 15.0159 40.003 14.9254 40.0779 14.8497C40.1529 14.774 40.2428 14.7147 40.342 14.6758C40.4411 14.6369 40.5473 14.6191 40.6537 14.6237C40.7602 14.6282 40.8645 14.6549 40.96 14.7021L45.0123 16.7057L42.7112 12.8152C42.6569 12.7235 42.6224 12.6214 42.6099 12.5156C42.5974 12.4098 42.6071 12.3026 42.6385 12.2008C42.67 12.0989 42.7223 12.0048 42.7922 11.9244C42.8622 11.844 42.9482 11.7792 43.0446 11.734L47.1385 9.81512L42.6626 9.18807C42.5571 9.17329 42.4559 9.13663 42.3654 9.08044C42.275 9.02426 42.1972 8.94978 42.1372 8.8618C42.0772 8.77381 42.0363 8.67425 42.017 8.56951C41.9977 8.46477 42.0005 8.35715 42.0253 8.25357L43.0766 3.85527L39.7947 6.96546C39.7174 7.03875 39.6256 7.09507 39.5252 7.1308C39.4248 7.16653 39.3181 7.18087 39.2119 7.17292C39.1056 7.16497 39.0023 7.1349 38.9083 7.08463C38.8144 7.03436 38.732 6.96501 38.6665 6.88102L35.8844 3.31802L36.2708 7.82132C36.2794 7.92132 36.2682 8.02203 36.2379 8.1177C36.2075 8.21337 36.1586 8.30213 36.094 8.3789C36.0293 8.45567 35.9502 8.51896 35.8611 8.56515C35.772 8.61133 35.6747 8.63952 35.5747 8.64808C35.4746 8.65683 35.3739 8.64575 35.2781 8.61548C35.1824 8.58521 35.0936 8.53634 35.0168 8.47167C34.9399 8.40701 34.8766 8.32782 34.8305 8.23865C34.7843 8.14948 34.7562 8.05208 34.7478 7.95202L34.1413 0.884538C34.1272 0.72039 34.1665 0.556071 34.2533 0.416078C34.3402 0.276085 34.47 0.167915 34.6234 0.107692C34.7767 0.0474697 34.9454 0.0384201 35.1043 0.0818926C35.2632 0.125365 35.4039 0.219031 35.5052 0.348929L39.3536 5.27747L43.892 0.976304C44.0115 0.862877 44.1645 0.791123 44.3281 0.771742C44.4918 0.752361 44.6573 0.786391 44.8 0.868758C44.9427 0.951125 45.055 1.07742 45.1201 1.2288C45.1852 1.38018 45.1996 1.54855 45.1612 1.70879L43.7075 7.79113L49.8987 8.65858C50.0618 8.6815 50.2131 8.75646 50.33 8.8723C50.447 8.98814 50.5235 9.13866 50.548 9.30146C50.5726 9.46426 50.5439 9.63064 50.4662 9.77581C50.3886 9.92098 50.2661 10.0372 50.1171 10.1071ZM35.5001 19.8719L30.498 28.5334L30.9406 28.7889C32.021 29.4137 32.3918 30.7997 31.7678 31.8788L30.8739 33.4284C30.5724 33.9499 30.0845 34.323 29.4996 34.4798C29.3064 34.5318 29.1072 34.5582 28.9071 34.5584C28.7156 34.5584 28.5258 34.5335 28.3411 34.4851L26.384 37.8752C26.1414 38.2958 25.7482 38.5969 25.277 38.7229C25.122 38.7645 24.9622 38.7856 24.8018 38.7857C24.4863 38.7857 24.1752 38.7034 23.8952 38.5417L23.576 38.3574L15.8633 51.7159C15.3726 52.5661 14.4784 53.0423 13.5606 53.0423C13.1121 53.0423 12.658 52.9286 12.2423 52.6892L11.6803 52.3645L10.3369 54.6925C9.86924 55.4961 9.0229 55.9452 8.15588 55.9453C7.7303 55.9453 7.30002 55.8373 6.9066 55.6097C6.32811 55.2764 5.91304 54.7349 5.7388 54.0855C5.56468 53.4365 5.65261 52.76 5.98654 52.1806L7.33163 49.8522L6.76769 49.5263C6.15683 49.1746 5.71868 48.6028 5.53504 47.9167C5.3514 47.2311 5.44502 46.5174 5.79863 45.907L13.5111 32.5456L12.8078 32.1395C12.3906 31.9014 12.0888 31.5106 11.9615 31.0408C11.8979 30.8092 11.8811 30.5674 11.9119 30.3293C11.9427 30.0912 12.0206 29.8616 12.1411 29.6539L14.1 26.2607C13.8248 25.9826 13.6269 25.6374 13.526 25.2593C13.3689 24.6737 13.4488 24.0637 13.7506 23.5417L14.6444 21.9921C15.2682 20.9137 16.6536 20.5428 17.7332 21.1639L18.1745 21.4186L23.1789 12.7551C23.9339 11.4491 25.495 10.8907 26.8755 11.3439L28.6619 8.24996C28.9552 7.74148 29.4305 7.37726 30.0003 7.22479C30.57 7.07232 31.1637 7.15052 31.6717 7.44474L35.8509 9.85449C36.9042 10.4666 37.2663 11.8185 36.6604 12.8694C36.6103 12.9564 36.5435 13.0326 36.464 13.0938C36.3844 13.1549 36.2935 13.1998 36.1966 13.2258C36.0996 13.2519 35.9985 13.2586 35.899 13.2455C35.7995 13.2324 35.7035 13.1999 35.6165 13.1497C35.4409 13.0485 35.3127 12.8816 35.2601 12.6859C35.2076 12.4901 35.2349 12.2815 35.3361 12.1059C35.5225 11.7827 35.4098 11.3661 35.0851 11.1774L30.907 8.76818C30.8304 8.72368 30.7457 8.69486 30.6579 8.6834C30.5701 8.67195 30.4809 8.67809 30.3954 8.70146C30.3099 8.72386 30.2297 8.76301 30.1594 8.81665C30.0891 8.87029 30.0302 8.93735 29.986 9.01394L28.2326 12.0505L28.7544 12.3517L29.349 11.3225C29.6851 10.7426 30.4285 10.5445 31.0068 10.8796L31.4462 11.1328L31.7564 10.5954C31.8577 10.4199 32.0247 10.2918 32.2205 10.2393C32.4163 10.1869 32.6249 10.2144 32.8005 10.3157C32.976 10.4171 33.1041 10.584 33.1565 10.7799C33.209 10.9757 33.1815 11.1843 33.0801 11.3598L32.7705 11.8962L33.2115 12.1504C33.35 12.2302 33.4712 12.3366 33.5682 12.4636C33.6653 12.5905 33.7362 12.7354 33.7769 12.89C33.8185 13.044 33.8292 13.2049 33.8083 13.3631C33.7874 13.5213 33.7353 13.6738 33.655 13.8118L33.0611 14.8379L34.3506 15.5823C35.8477 16.4519 36.3625 18.3758 35.5001 19.8719ZM30.0781 13.1161L31.737 14.0737L32.1747 13.3174L31.3717 12.8545C31.3621 12.8495 31.3522 12.8458 31.3428 12.8403C31.3307 12.8333 31.3195 12.8253 31.3079 12.8178L30.5146 12.3605L30.0781 13.1161ZM24.5023 13.52L24.4272 13.6501L34.102 19.2361L34.1761 19.1079C34.6187 18.3401 34.3534 17.3517 33.5845 16.9051L31.6416 15.7836C31.6388 15.782 31.6358 15.781 31.633 15.7793C31.6294 15.7773 31.6262 15.7748 31.6227 15.7727L28.6862 14.0775C28.6743 14.0713 28.6623 14.066 28.6506 14.0592C28.6391 14.0526 28.6287 14.045 28.6176 14.038L26.6982 12.9299C25.9312 12.4887 24.9457 12.7533 24.5023 13.52ZM32.4602 22.079L33.3375 20.5599L23.6625 14.9738L22.7845 16.494L32.4602 22.079ZM22.0199 17.8175L21.1403 19.3403L30.8164 24.9254L31.6958 23.4027L22.0199 17.8175ZM10.3566 51.5999L8.65507 50.6168L7.31052 52.9445C7.18069 53.1697 7.14668 53.4344 7.21515 53.6894C7.28351 53.944 7.44527 54.1558 7.6708 54.2858C8.13904 54.5567 8.74147 54.3951 9.01436 53.926L10.3566 51.5999ZM22.2521 37.5931L14.8349 33.3101L7.12174 46.6722C6.97255 46.9298 6.93361 47.2309 7.01138 47.5213C7.08925 47.8122 7.27399 48.054 7.53124 48.2022L11.7459 50.6371C11.7585 50.6435 11.7712 50.6493 11.7835 50.6564C11.7962 50.6637 11.8078 50.672 11.8199 50.6799L13.0061 51.3651C13.5415 51.6734 14.2297 51.4882 14.5394 50.9516L22.2521 37.5931ZM26.9772 33.79L15.3827 27.0963L13.4652 30.4178C13.446 30.4513 13.4336 30.4882 13.4287 30.5266C13.4239 30.5649 13.4267 30.6038 13.4369 30.641C13.4464 30.6771 13.463 30.7109 13.4856 30.7406C13.5083 30.7702 13.5365 30.7951 13.5688 30.8138L24.6591 37.2178C24.6926 37.237 24.7296 37.2493 24.7678 37.2542C24.8061 37.2591 24.845 37.2563 24.8822 37.2461C24.9193 37.2365 24.9541 37.2196 24.9846 37.1964C25.0151 37.1732 25.0407 37.1442 25.06 37.1111L26.9772 33.79ZM30.1758 30.1125L29.0759 29.4775C29.0745 29.4766 29.073 29.4761 29.0716 29.4753L29.0662 29.4718L18.0943 23.1374C18.0867 23.1334 18.0788 23.13 18.0712 23.1256C18.0636 23.1212 18.0568 23.1162 18.0496 23.1116L16.9698 22.4882C16.8013 22.3913 16.6013 22.3652 16.4135 22.4155C16.2258 22.4658 16.0657 22.5885 15.9682 22.7566L15.0744 24.3062C15.0261 24.3897 14.9949 24.4819 14.9825 24.5775C14.9702 24.6731 14.977 24.7703 15.0025 24.8633C15.0268 24.956 15.0693 25.0431 15.1275 25.1193C15.1856 25.1955 15.2584 25.2594 15.3415 25.3073L15.3423 25.3078L28.5488 32.9322C28.7166 33.0292 28.9135 33.0541 29.104 33.0032C29.2949 32.952 29.4534 32.8316 29.5504 32.6638L30.4442 31.1141C30.6432 30.7701 30.5201 30.3116 30.1758 30.1125ZM29.1741 27.7691L30.052 26.249L20.3758 20.6638L19.4983 22.183L29.1741 27.7691Z" fill="black"/>
</svg>
