<svg width="56" height="56" viewBox="0 0 56 56" fill="none" xmlns="http://www.w3.org/2000/svg">
<g clip-path="url(#clip0_37_6804)">
<path d="M28 0C12.5361 0 0 12.5361 0 28C0 43.4639 12.5361 56 28 56C43.4639 56 56 43.4639 56 28C55.9825 12.5433 43.4567 0.0175 28 0ZM53.1216 35.1811L51.3679 34.6108L50.7901 36.3841L52.5513 36.9563C51.8229 38.9432 50.8557 40.8343 49.6711 42.588L48.1777 41.5053L47.0801 43.0155L48.5623 44.0925C47.2579 45.7573 45.7582 47.2592 44.0953 48.566L43.0183 47.0839L41.5081 48.1815L42.5908 49.6748C40.8373 50.8581 38.9465 51.8241 36.96 52.5513L36.3879 50.7901L34.6145 51.3679L35.1848 53.1216C33.149 53.7045 31.0496 54.0364 28.9333 54.11V52.2667H27.0667V54.11C24.9516 54.0362 22.8535 53.7042 20.8189 53.1216L21.3892 51.3679L19.6159 50.7901L19.04 52.5513C17.053 51.8229 15.1619 50.8557 13.4083 49.6711L14.4909 48.1777L12.9808 47.0801L11.9037 48.5623C10.2397 47.2566 8.7387 45.7556 7.43307 44.0916L8.9152 43.0145L7.8176 41.5044L6.32427 42.5871C5.14315 40.8344 4.17912 38.9449 3.45333 36.96L5.21453 36.3879L4.6368 34.6145L2.88307 35.1848C2.2986 33.1492 1.96511 31.0498 1.89 28.9333H3.73333V27.0667H1.89C1.96385 24.9516 2.29577 22.8535 2.8784 20.8189L4.63213 21.3892L5.20987 19.6159L3.45333 19.04C4.18179 17.053 5.14896 15.1619 6.3336 13.4083L7.82693 14.4909L8.92453 12.9808L7.434 11.9047C8.73964 10.2406 10.2406 8.73964 11.9047 7.434L12.9817 8.91613L14.4919 7.81853L13.4092 6.3252C15.1629 5.14348 17.0537 4.17913 19.04 3.45333L19.6121 5.21453L21.3855 4.6368L20.8152 2.88307C22.8508 2.2986 24.9502 1.96511 27.0667 1.89V3.73333H28.9333V1.89C31.0484 1.96385 33.1465 2.29577 35.1811 2.8784L34.6108 4.63213L36.3841 5.20987L36.96 3.45333C38.947 4.18179 40.8381 5.14896 42.5917 6.3336L41.5091 7.82693L43.0192 8.92453L44.0963 7.4424C45.7603 8.74804 47.2613 10.249 48.5669 11.9131L47.0848 12.9901L48.1824 14.5003L49.6757 13.4176C50.8581 15.1685 51.8237 17.0565 52.5513 19.04L50.7901 19.6121L51.3679 21.3855L53.1216 20.8152C53.7045 22.851 54.0364 24.9504 54.11 27.0667H52.2667V28.9333H54.11C54.0362 31.0484 53.7042 33.1465 53.1216 35.1811Z" fill="#E6FBEF"/>
<path d="M28 7.46667C16.6598 7.46667 7.46667 16.6598 7.46667 28C7.46667 39.3402 16.6598 48.5333 28 48.5333C39.3402 48.5333 48.5333 39.3402 48.5333 28C48.5205 16.6651 39.3349 7.47951 28 7.46667ZM28 46.6667C17.6906 46.6667 9.33334 38.3094 9.33334 28C9.33334 17.6906 17.6906 9.33334 28 9.33334C38.3094 9.33334 46.6667 17.6906 46.6667 28C46.6549 38.3044 38.3045 46.6549 28 46.6667Z" fill="#E6FBEF"/>
<path d="M28 12.1333C19.2371 12.1333 12.1334 19.237 12.1334 28C12.1334 36.7629 19.2371 43.8666 28 43.8666C36.763 43.8666 43.8667 36.7629 43.8667 28C43.8569 19.2411 36.7589 12.1431 28 12.1333ZM40.0018 20.8292C41.0869 22.6305 41.7485 24.6548 41.9366 26.7493L36.0911 26.277C35.9079 26.2617 35.7333 26.1926 35.5893 26.0783C35.4452 25.9641 35.3381 25.8099 35.2814 25.635C35.2246 25.4602 35.2208 25.2724 35.2704 25.0954C35.32 24.9184 35.4207 24.7599 35.56 24.64L40.0018 20.8292ZM31.1164 14.3621L28.8615 19.7754C28.7906 19.9455 28.671 20.0907 28.5177 20.1929C28.3644 20.2951 28.1843 20.3496 28 20.3496C27.8158 20.3496 27.6357 20.2951 27.4824 20.1929C27.3291 20.0907 27.2095 19.9455 27.1386 19.7754L24.8836 14.3621C26.9332 13.8792 29.0669 13.8792 31.1164 14.3621ZM15.9983 20.8289L20.44 24.64C20.5799 24.7599 20.6812 24.9185 20.7311 25.0959C20.781 25.2733 20.7773 25.4615 20.7204 25.6368C20.6635 25.812 20.556 25.9666 20.4114 26.0808C20.2669 26.1951 20.0917 26.264 19.908 26.2789L14.0626 26.7512C14.2506 24.6559 14.9126 22.6308 15.9983 20.8289ZM23.8579 35.1624L22.5027 40.8725C20.5718 40.0389 18.8524 38.783 17.4711 37.197H17.4683L22.4635 34.1497C22.6208 34.0536 22.803 34.0063 22.9872 34.0137C23.1714 34.021 23.3492 34.0828 23.4984 34.1911C23.6475 34.2994 23.7612 34.4494 23.8252 34.6223C23.8892 34.7951 23.9006 34.9831 23.8579 35.1624ZM33.4974 40.8725H33.4946L32.1366 35.1624C32.0939 34.9831 32.1052 34.7951 32.1692 34.6223C32.2332 34.4494 32.3469 34.2994 32.4961 34.1911C32.6452 34.0828 32.8231 34.021 33.0073 34.0137C33.1914 34.0063 33.3737 34.0536 33.531 34.1497L38.5262 37.197C37.1457 38.7826 35.4273 40.0386 33.4974 40.8725ZM34.5054 32.5556C33.1853 31.7501 31.4622 32.1672 30.6568 33.4873C30.2718 34.1181 30.1519 34.8756 30.3231 35.5945L31.7231 41.482C29.2885 42.1726 26.7097 42.1726 24.2751 41.482H24.2732L25.6732 35.5945C26.0309 34.0901 25.1013 32.5804 23.5968 32.2227C22.8783 32.0519 22.1214 32.1719 21.491 32.5565L16.3259 35.7093C14.9313 33.6001 14.1381 31.1507 14.0318 28.6244L20.0592 28.1372C21.6004 28.0108 22.7473 26.6589 22.621 25.1177C22.5607 24.3828 22.213 23.7014 21.6534 23.2213L17.0614 19.2826C18.6393 17.3084 20.7207 15.7965 23.086 14.9062L25.4119 20.4904C26.0063 21.9179 27.6455 22.5934 29.0731 21.9989C29.7553 21.7148 30.2976 21.1726 30.5816 20.4904L32.9084 14.9062C35.2736 15.7968 37.3549 17.3086 38.9331 19.2826L34.3467 23.2213C33.173 24.2282 33.0379 25.996 34.0449 27.1695C34.5255 27.7297 35.2079 28.0775 35.9436 28.1372L41.9711 28.6244C41.8647 31.1507 41.0716 33.6001 39.677 35.7093L34.5054 32.5556Z" fill="#E6FBEF"/>
<path d="M28 24.2667C25.9381 24.2667 24.2667 25.9382 24.2667 28.0001C24.2667 30.0619 25.9381 31.7334 28 31.7334C30.0618 31.7334 31.7333 30.0619 31.7333 28.0001C31.7333 25.9382 30.0618 24.2667 28 24.2667ZM28 29.8667C26.969 29.8667 26.1333 29.031 26.1333 28.0001C26.1333 26.9691 26.969 26.1334 28 26.1334C29.031 26.1334 29.8667 26.9691 29.8667 28.0001C29.8667 29.031 29.031 29.8667 28 29.8667Z" fill="#E6FBEF"/>
</g>
<defs>
<clipPath id="clip0_37_6804">
<rect width="56" height="56" fill="white"/>
</clipPath>
</defs>
</svg>
